<?xml version="1.0" encoding="UTF-8" standalone="no"?>
<svg width="32px" height="32px" viewBox="0 0 32 32" xmlns="http://www.w3.org/2000/svg">
  <!-- 깃허브 보드 파비콘 -->
  <rect x="2" y="2" width="28" height="28" rx="5" fill="#24292e" />
  <path d="M16 4.5c-6.33 0-11.5 5.17-11.5 11.5 0 5.06 3.29 9.36 7.85 10.88.57.11.78-.25.78-.55v-1.94c-3.18.69-3.86-1.53-3.86-1.53-.52-1.32-1.27-1.67-1.27-1.67-1.04-.71.08-.7.08-.7 1.15.08 1.76 1.18 1.76 1.18 1.02 1.74 2.67 1.24 3.32.95.1-.74.4-1.24.72-1.52-2.54-.29-5.2-1.27-5.2-5.64 0-1.24.44-2.27 1.17-3.06-.12-.29-.51-1.44.11-3 0 0 .95-.3 3.11 1.16.9-.25 1.87-.38 2.83-.38.96 0 1.93.13 2.83.38 2.16-1.46 3.11-1.16 3.11-1.16.62 1.56.23 2.71.11 3 .73.79 1.17 1.82 1.17 3.06 0 4.39-2.67 5.35-5.22 5.63.41.35.77 1.05.77 2.12v3.14c0 .3.21.66.79.55 4.55-1.52 7.84-5.82 7.84-10.88 0-6.33-5.17-11.5-11.5-11.5z" fill="#ffffff"/>
</svg> 